<?xml version="1.0" encoding="UTF-8" standalone="no"?>
<!DOCTYPE svg PUBLIC "-//W3C//DTD SVG 1.1//EN"
 "http://www.w3.org/Graphics/SVG/1.1/DTD/svg11.dtd">
<!-- Generated by graphviz version 2.40.1 (20161225.0304)
 -->
<!-- Title: state transitions Pages: 1 -->
<svg width="376pt" height="352pt"
 viewBox="0.00 0.00 376.00 352.00" xmlns="http://www.w3.org/2000/svg" xmlns:xlink="http://www.w3.org/1999/xlink">
<g id="graph0" class="graph" transform="scale(1 1) rotate(0) translate(4 348)">
<title>state transitions</title>
<polygon fill="#ffffff" stroke="transparent" points="-4,4 -4,-348 372,-348 372,4 -4,4"/>
<g id="clust1" class="cluster state regular">
<title>cluster_enc_ctrl_new</title>
<path fill="none" stroke="#000000" stroke-width="2" d="M20,-8C20,-8 348,-8 348,-8 354,-8 360,-14 360,-20 360,-20 360,-324 360,-324 360,-330 354,-336 348,-336 348,-336 20,-336 20,-336 14,-336 8,-330 8,-324 8,-324 8,-20 8,-20 8,-14 14,-8 20,-8"/>
<text text-anchor="start" x="148.66" y="-317.2" font-family="Helvetica,sans-Serif" font-size="12.00" fill="#000000">enc_ctrl_new</text>
</g>
<!-- enc_ctrl_new -->
<!-- CTRL_IDLE -->
<g id="node2" class="node state regular">
<title>CTRL_IDLE</title>
<polygon fill="#ffffff" fill-opacity="0.003922" stroke="transparent" stroke-width="2" points="206,-298 120,-298 120,-262 206,-262 206,-298"/>
<text text-anchor="start" x="130.6654" y="-276.2" font-family="Helvetica,sans-Serif" font-size="12.00" fill="#000000">CTRL_IDLE</text>
<path fill="none" stroke="#000000" stroke-width="2" d="M132.3333,-263C132.3333,-263 193.6667,-263 193.6667,-263 199.3333,-263 205,-268.6667 205,-274.3333 205,-274.3333 205,-285.6667 205,-285.6667 205,-291.3333 199.3333,-297 193.6667,-297 193.6667,-297 132.3333,-297 132.3333,-297 126.6667,-297 121,-291.3333 121,-285.6667 121,-285.6667 121,-274.3333 121,-274.3333 121,-268.6667 126.6667,-263 132.3333,-263"/>
</g>
<!-- CTRL_INIT -->
<g id="node3" class="node state regular">
<title>CTRL_INIT</title>
<polygon fill="#ffffff" fill-opacity="0.003922" stroke="transparent" stroke-width="2" points="168,-216 86,-216 86,-180 168,-180 168,-216"/>
<text text-anchor="start" x="96.6694" y="-194.2" font-family="Helvetica,sans-Serif" font-size="12.00" fill="#000000">CTRL_INIT</text>
<path fill="none" stroke="#000000" stroke-width="2" d="M98.3333,-181C98.3333,-181 155.6667,-181 155.6667,-181 161.3333,-181 167,-186.6667 167,-192.3333 167,-192.3333 167,-203.6667 167,-203.6667 167,-209.3333 161.3333,-215 155.6667,-215 155.6667,-215 98.3333,-215 98.3333,-215 92.6667,-215 87,-209.3333 87,-203.6667 87,-203.6667 87,-192.3333 87,-192.3333 87,-186.6667 92.6667,-181 98.3333,-181"/>
</g>
<!-- CTRL_IDLE&#45;&gt;CTRL_INIT -->
<g id="edge1" class="edge transition">
<title>CTRL_IDLE&#45;&gt;CTRL_INIT</title>
<path fill="none" stroke="#000000" d="M155.0104,-261.8015C150.3496,-251.1853 144.3759,-237.5784 139.1433,-225.6596"/>
<polygon fill="#000000" stroke="#000000" points="142.1919,-223.897 134.9672,-216.1476 135.7824,-226.711 142.1919,-223.897"/>
<text text-anchor="start" x="147" y="-236" font-family="Helvetica,sans-Serif" font-size="10.00" fill="#000000">next &#160;&#160;</text>
</g>
<!-- CTRL_SBOX -->
<g id="node4" class="node state regular">
<title>CTRL_SBOX</title>
<polygon fill="#ffffff" fill-opacity="0.003922" stroke="transparent" stroke-width="2" points="173.5,-134 80.5,-134 80.5,-98 173.5,-98 173.5,-134"/>
<text text-anchor="start" x="91.8294" y="-112.2" font-family="Helvetica,sans-Serif" font-size="12.00" fill="#000000">CTRL_SBOX</text>
<path fill="none" stroke="#000000" stroke-width="2" d="M92.8333,-99C92.8333,-99 161.1667,-99 161.1667,-99 166.8333,-99 172.5,-104.6667 172.5,-110.3333 172.5,-110.3333 172.5,-121.6667 172.5,-121.6667 172.5,-127.3333 166.8333,-133 161.1667,-133 161.1667,-133 92.8333,-133 92.8333,-133 87.1667,-133 81.5,-127.3333 81.5,-121.6667 81.5,-121.6667 81.5,-110.3333 81.5,-110.3333 81.5,-104.6667 87.1667,-99 92.8333,-99"/>
</g>
<!-- CTRL_INIT&#45;&gt;CTRL_SBOX -->
<g id="edge2" class="edge transition">
<title>CTRL_INIT&#45;&gt;CTRL_SBOX</title>
<path fill="none" stroke="#000000" d="M127,-179.8015C127,-169.3976 127,-156.1215 127,-144.3768"/>
<polygon fill="#000000" stroke="#000000" points="130.5001,-144.1476 127,-134.1476 123.5001,-144.1476 130.5001,-144.1476"/>
<text text-anchor="middle" x="128.3895" y="-154" font-family="Helvetica,sans-Serif" font-size="10.00" fill="#000000"> </text>
</g>
<!-- CTRL_MAIN -->
<g id="node5" class="node state regular">
<title>CTRL_MAIN</title>
<polygon fill="#ffffff" fill-opacity="0.003922" stroke="transparent" stroke-width="2" points="234.5,-52 145.5,-52 145.5,-16 234.5,-16 234.5,-52"/>
<text text-anchor="start" x="156.5034" y="-30.2" font-family="Helvetica,sans-Serif" font-size="12.00" fill="#000000">CTRL_MAIN</text>
<path fill="none" stroke="#000000" stroke-width="2" d="M157.8333,-17C157.8333,-17 222.1667,-17 222.1667,-17 227.8333,-17 233.5,-22.6667 233.5,-28.3333 233.5,-28.3333 233.5,-39.6667 233.5,-39.6667 233.5,-45.3333 227.8333,-51 222.1667,-51 222.1667,-51 157.8333,-51 157.8333,-51 152.1667,-51 146.5,-45.3333 146.5,-39.6667 146.5,-39.6667 146.5,-28.3333 146.5,-28.3333 146.5,-22.6667 152.1667,-17 157.8333,-17"/>
</g>
<!-- CTRL_SBOX&#45;&gt;CTRL_MAIN -->
<g id="edge3" class="edge transition">
<title>CTRL_SBOX&#45;&gt;CTRL_MAIN</title>
<path fill="none" stroke="#000000" d="M80.4035,-103.0538C60.3911,-95.0962 43.8991,-83.6124 55.202,-69 65.2233,-56.0445 102.3929,-46.9988 135.1684,-41.3533"/>
<polygon fill="#000000" stroke="#000000" points="135.8644,-44.7859 145.164,-39.7098 134.7287,-37.8787 135.8644,-44.7859"/>
<text text-anchor="start" x="55" y="-72" font-family="Helvetica,sans-Serif" font-size="10.00" fill="#000000">sword_ctr_reg == 2&#39;h3 &#160;&#160;</text>
</g>
<!-- CTRL_MAIN&#45;&gt;CTRL_IDLE -->
<g id="edge5" class="edge transition">
<title>CTRL_MAIN&#45;&gt;CTRL_IDLE</title>
<path fill="none" stroke="#000000" d="M234.5276,-40.8009C265.9969,-46.623 304.247,-56.113 314,-69 356.9431,-125.7419 191,-100.3399 191,-171.5 191,-239 191,-239 191,-239 191,-243.9132 189.6119,-248.671 187.4538,-253.0992"/>
<polygon fill="#000000" stroke="#000000" points="184.4349,-251.3262 182.1406,-261.6697 190.3844,-255.0146 184.4349,-251.3262"/>
<text text-anchor="start" x="196" y="-154" font-family="Helvetica,sans-Serif" font-size="10.00" fill="#000000">not (round_ctr_reg &lt; num_rounds) &#160;&#160;</text>
</g>
<!-- CTRL_MAIN&#45;&gt;CTRL_SBOX -->
<g id="edge4" class="edge transition">
<title>CTRL_MAIN&#45;&gt;CTRL_SBOX</title>
<path fill="none" stroke="#000000" d="M181.586,-52.2111C176.9953,-61.2747 170.854,-72.1547 164,-81 161.5121,-84.2108 158.7256,-87.3963 155.8279,-90.4621"/>
<polygon fill="#000000" stroke="#000000" points="153.1016,-88.2385 148.5023,-97.783 158.0498,-93.1898 153.1016,-88.2385"/>
<text text-anchor="start" x="171" y="-72" font-family="Helvetica,sans-Serif" font-size="10.00" fill="#000000">round_ctr_reg &lt; num_rounds &#160;&#160;</text>
</g>
</g>
</svg>
