<?xml version="1.0" encoding="UTF-8" standalone="no"?>
<!DOCTYPE svg PUBLIC "-//W3C//DTD SVG 1.1//EN"
 "http://www.w3.org/Graphics/SVG/1.1/DTD/svg11.dtd">
<!-- Generated by graphviz version 2.40.1 (20161225.0304)
 -->
<!-- Title: state transitions Pages: 1 -->
<svg width="365pt" height="188pt"
 viewBox="0.00 0.00 365.00 188.00" xmlns="http://www.w3.org/2000/svg" xmlns:xlink="http://www.w3.org/1999/xlink">
<g id="graph0" class="graph" transform="scale(1 1) rotate(0) translate(4 184)">
<title>state transitions</title>
<polygon fill="#ffffff" stroke="transparent" points="-4,4 -4,-184 361,-184 361,4 -4,4"/>
<g id="clust1" class="cluster state regular">
<title>cluster_aes_core_ctrl_new</title>
<path fill="none" stroke="#000000" stroke-width="2" d="M20,-8C20,-8 337,-8 337,-8 343,-8 349,-14 349,-20 349,-20 349,-160 349,-160 349,-166 343,-172 337,-172 337,-172 20,-172 20,-172 14,-172 8,-166 8,-160 8,-160 8,-20 8,-20 8,-14 14,-8 20,-8"/>
<text text-anchor="start" x="128.1564" y="-153.2" font-family="Helvetica,sans-Serif" font-size="12.00" fill="#000000">aes_core_ctrl_new</text>
</g>
<!-- aes_core_ctrl_new -->
<!-- CTRL_IDLE -->
<g id="node2" class="node state regular">
<title>CTRL_IDLE</title>
<polygon fill="#ffffff" fill-opacity="0.003922" stroke="transparent" stroke-width="2" points="212,-134 126,-134 126,-98 212,-98 212,-134"/>
<text text-anchor="start" x="136.6654" y="-112.2" font-family="Helvetica,sans-Serif" font-size="12.00" fill="#000000">CTRL_IDLE</text>
<path fill="none" stroke="#000000" stroke-width="2" d="M138.3333,-99C138.3333,-99 199.6667,-99 199.6667,-99 205.3333,-99 211,-104.6667 211,-110.3333 211,-110.3333 211,-121.6667 211,-121.6667 211,-127.3333 205.3333,-133 199.6667,-133 199.6667,-133 138.3333,-133 138.3333,-133 132.6667,-133 127,-127.3333 127,-121.6667 127,-121.6667 127,-110.3333 127,-110.3333 127,-104.6667 132.6667,-99 138.3333,-99"/>
</g>
<!-- CTRL_INIT -->
<g id="node3" class="node state regular">
<title>CTRL_INIT</title>
<polygon fill="#ffffff" fill-opacity="0.003922" stroke="transparent" stroke-width="2" points="138,-52 56,-52 56,-16 138,-16 138,-52"/>
<text text-anchor="start" x="66.6694" y="-30.2" font-family="Helvetica,sans-Serif" font-size="12.00" fill="#000000">CTRL_INIT</text>
<path fill="none" stroke="#000000" stroke-width="2" d="M68.3333,-17C68.3333,-17 125.6667,-17 125.6667,-17 131.3333,-17 137,-22.6667 137,-28.3333 137,-28.3333 137,-39.6667 137,-39.6667 137,-45.3333 131.3333,-51 125.6667,-51 125.6667,-51 68.3333,-51 68.3333,-51 62.6667,-51 57,-45.3333 57,-39.6667 57,-39.6667 57,-28.3333 57,-28.3333 57,-22.6667 62.6667,-17 68.3333,-17"/>
</g>
<!-- CTRL_IDLE&#45;&gt;CTRL_INIT -->
<g id="edge1" class="edge transition">
<title>CTRL_IDLE&#45;&gt;CTRL_INIT</title>
<path fill="none" stroke="#000000" d="M153.0209,-97.8015C143.2332,-86.6545 130.5505,-72.2103 119.7284,-59.8851"/>
<polygon fill="#000000" stroke="#000000" points="122.1626,-57.3527 112.9345,-52.1476 116.9025,-61.9713 122.1626,-57.3527"/>
<text text-anchor="start" x="137" y="-72" font-family="Helvetica,sans-Serif" font-size="10.00" fill="#000000">init &#160;&#160;</text>
</g>
<!-- CTRL_NEXT -->
<g id="node4" class="node state regular">
<title>CTRL_NEXT</title>
<polygon fill="#ffffff" fill-opacity="0.003922" stroke="transparent" stroke-width="2" points="284.5,-52 193.5,-52 193.5,-16 284.5,-16 284.5,-52"/>
<text text-anchor="start" x="204.5014" y="-30.2" font-family="Helvetica,sans-Serif" font-size="12.00" fill="#000000">CTRL_NEXT</text>
<path fill="none" stroke="#000000" stroke-width="2" d="M205.8333,-17C205.8333,-17 272.1667,-17 272.1667,-17 277.8333,-17 283.5,-22.6667 283.5,-28.3333 283.5,-28.3333 283.5,-39.6667 283.5,-39.6667 283.5,-45.3333 277.8333,-51 272.1667,-51 272.1667,-51 205.8333,-51 205.8333,-51 200.1667,-51 194.5,-45.3333 194.5,-39.6667 194.5,-39.6667 194.5,-28.3333 194.5,-28.3333 194.5,-22.6667 200.1667,-17 205.8333,-17"/>
</g>
<!-- CTRL_IDLE&#45;&gt;CTRL_NEXT -->
<g id="edge2" class="edge transition">
<title>CTRL_IDLE&#45;&gt;CTRL_NEXT</title>
<path fill="none" stroke="#000000" d="M184.5353,-97.8015C194.0511,-86.6545 206.3815,-72.2103 216.903,-59.8851"/>
<polygon fill="#000000" stroke="#000000" points="219.6775,-62.0257 223.5082,-52.1476 214.3535,-57.4808 219.6775,-62.0257"/>
<text text-anchor="start" x="208" y="-72" font-family="Helvetica,sans-Serif" font-size="10.00" fill="#000000">next &#160;&#160;</text>
</g>
<!-- CTRL_INIT&#45;&gt;CTRL_IDLE -->
<g id="edge3" class="edge transition">
<title>CTRL_INIT&#45;&gt;CTRL_IDLE</title>
<path fill="none" stroke="#000000" d="M75.4215,-52.2492C67.5567,-61.1216 62.0191,-71.8243 68.539,-81 74.6112,-89.5457 95.0529,-97.3948 115.9259,-103.4846"/>
<polygon fill="#000000" stroke="#000000" points="115.2476,-106.9289 125.8201,-106.2414 117.1264,-100.1857 115.2476,-106.9289"/>
<text text-anchor="start" x="68" y="-72" font-family="Helvetica,sans-Serif" font-size="10.00" fill="#000000">key_ready &#160;&#160;</text>
</g>
<!-- CTRL_NEXT&#45;&gt;CTRL_IDLE -->
<g id="edge4" class="edge transition">
<title>CTRL_NEXT&#45;&gt;CTRL_IDLE</title>
<path fill="none" stroke="#000000" d="M243.8575,-52.2013C245.2781,-61.4742 245.2587,-72.5448 240,-81 235.4093,-88.3811 228.753,-94.2515 221.332,-98.907"/>
<polygon fill="#000000" stroke="#000000" points="219.4338,-95.9561 212.347,-103.8319 222.7984,-102.0945 219.4338,-95.9561"/>
<text text-anchor="start" x="244" y="-72" font-family="Helvetica,sans-Serif" font-size="10.00" fill="#000000">muxed_ready &#160;&#160;</text>
</g>
</g>
</svg>
